# xmcd
#
# Track frame offsets: 
#        150
#        12402
#        32827
#        42602
#        52417
#        63677
#        73732
#        84812
#        98062
#        109590
#        124147
#        133867
#        145342
#        157335
#        169247
#        182212
#        193325
#        205875
#        217935
#
# Disc length: 3067 seconds
#
# Revision: 0
# Processed by: cddbd v1.5.1PL0 Copyright (c) Steve Scherf et al.
# Submitted via: ExactAudioCopy v0.95b2
#
DISCID=2e0bf913
DTITLE=Various Artist - Chicago Blues From C.J. Records Volume 1
DYEAR=1900
DGENRE=Blues
TTITLE0=Big Moose Walker With Lefty Dizz and His Blues Hounds - Tend To 
TTITLE0=Your Business
TTITLE1=Big Moose Walker With Lefty Dizz and His Blues Hounds - Things I
TTITLE1=Use To Do
TTITLE2=Hound Dog Taylor - Christine
TTITLE3=Hound Dog Taylor - Alley Music
TTITLE4=Hound Dog Taylor - You Don't Love Me
TTITLE5=Hound Dog Taylor - Christine - Instrumental Version
TTITLE6=Liittle Mac Simmons and James Cotton - Jumping At Cadillacs
TTITLE7=Liittle Mac Simmons - I Need You
TTITLE8=Liittle Mac Simmons - Come Back
TTITLE9=Liittle Mac Simmons - My Walking Blues
TTITLE10=Eddie Shaw - Ridin' High
TTITLE11=Eddie Shaw - Blues For The West Side
TTITLE12=Freddie Hall - Love and Affection
TTITLE13=Freddie Hall - You Were My First Love
TTITLE14=Betty Everett With Al Perkins Band - Please Come Back
TTITLE15=Al Perkins and Band - You Cost Too Much
TTITLE16=Ike Perkins and Band - Ike's Boogie
TTITLE17=The Daffodils With Ike Perkins' Band - Walk
TTITLE18=Lady Jean and Her Swinging Cats - Teenie Jeannie
EXTD=
EXTT0=
EXTT1=
EXTT2=
EXTT3=
EXTT4=
EXTT5=
EXTT6=
EXTT7=
EXTT8=
EXTT9=
EXTT10=
EXTT11=
EXTT12=
EXTT13=
EXTT14=
EXTT15=
EXTT16=
EXTT17=
EXTT18=
PLAYORDER=
